PathFileType	4	(x/y/z)	S04_P20_T04.trc
DataRate	CameraRate	NumFrames	NumMarkers	Units	OrigDataRate	OrigDataStartFrame	OrigNumFrames
240	240	10	51	mm	240	45	358
Frame#	Time	Sternum			R.Acromium			L.Acromium			Top.Head			R.ASIS			L.ASIS			R.PSIS			L.PSIS			R.Great.Tro			L.Great.Tro			R.Iliac.Crest			L.Iliac.Crest			V.Sacral			R.Thigh.Upper.Post			R.Thigh.Lower.Ant			R.Thigh.Lower.Post			R.Thigh.Upper.Ant			R.Knee.Lat			R.Knee.Med			R.Shank.Upper.Post			R.Shank.Lower.Ant			R.Shank.Lower.Post			R.Shank.Upper.Ant			R.Ankle.Lat			R.Ankle.Med			R.Heel.Upper			R.Heel.Med			R.Heel.Lat			R.Toe.Lat			R.Toe.Med			R.Toe.Tip			L.Thigh.Upper.Post			L.Thigh.Lower.Ant			L.Thigh.Lower.Post			L.Thigh.Upper.Ant			L.Knee.Lat			L.Knee.Med			L.Shank.Upper.Post			L.Shank.Lower.Ant			L.Shank.Lower.Post			L.Shank.Upper.Ant			L.Ankle.Lat			L.Ankle.Med			L.Heel.Upper			L.Heel.Med			L.Heel.Lat			L.Toe.Lat			L.Toe.Med			L.Toe.Tip			Cervical.Spine			Back			
		X1	Y1	Z1	X2	Y2	Z2	X3	Y3	Z3	X4	Y4	Z4	X5	Y5	Z5	X6	Y6	Z6	X7	Y7	Z7	X8	Y8	Z8	X9	Y9	Z9	X10	Y10	Z10	X11	Y11	Z11	X12	Y12	Z12	X13	Y13	Z13	X14	Y14	Z14	X15	Y15	Z15	X16	Y16	Z16	X17	Y17	Z17	X18	Y18	Z18	X19	Y19	Z19	X20	Y20	Z20	X21	Y21	Z21	X22	Y22	Z22	X23	Y23	Z23	X24	Y24	Z24	X25	Y25	Z25	X26	Y26	Z26	X27	Y27	Z27	X28	Y28	Z28	X29	Y29	Z29	X30	Y30	Z30	X31	Y31	Z31	X32	Y32	Z32	X33	Y33	Z33	X34	Y34	Z34	X35	Y35	Z35	X36	Y36	Z36	X37	Y37	Z37	X38	Y38	Z38	X39	Y39	Z39	X40	Y40	Z40	X41	Y41	Z41	X42	Y42	Z42	X43	Y43	Z43	X44	Y44	Z44	X45	Y45	Z45	X46	Y46	Z46	X47	Y47	Z47	X48	Y48	Z48	X49	Y49	Z49	X50	Y50	Z50	X51	Y51	Z51	

45	0.18333	-1126.8	1265.5	258.14	-1217.4	1498.8	446.27	-1277.8	1484.5	101.73	-1142.8	1813.6	248.9	-1162	983.12	407.68	NaN	NaN	NaN	-1382.4	1017.4	316.46	-1379.4	1026.2	234.93	-1251.9	900.18	471.34	-1280.9	920.31	95.16	-1249.8	1078.6	454.45	-1280.1	1086.2	118.34	-1404.2	980.8	275.55	-1230.2	642.29	472.74	-1144.8	565.7	449.76	-1220.6	552.23	461.97	-1148.4	676.3	464.35	-1203.4	483.34	456.11	-1210.9	479.67	321.81	-1406.1	375.17	447.09	NaN	NaN	NaN	-1462.4	329.45	433.89	-1370.2	321.84	435.04	-1537.4	246.41	415.4	-1504.1	229.1	332.11	-1600.3	265.52	353.55	-1608.8	236.11	323.66	-1625.5	244.8	385.67	-1527.4	121.29	457.63	-1479.4	84.919	348.25	-1420.2	66.358	408.78	-1234	681	107.67	-1129.9	610.18	113.98	-1201.9	598.76	123.34	-1167.1	691.22	96.353	-1136.4	518.3	131.97	-1136	508.62	254.61	-1203.3	333.06	128.47	-1131.9	250.24	138.83	-1196.1	254.58	139.42	-1142.2	325.64	129.11	-1146	97.095	157.31	-1143.5	110.59	250.54	-1219.7	67.391	205.53	-1213.7	45.133	240.29	-1218.2	38.432	179.52	-1032.6	42.92	142.89	-1002.9	57.957	257.19	-945.41	70.73	208.02	-1289.5	1551.4	284.46	-1392.9	1295.1	278.92
46	0.1875	-1121.6	1266	257.95	-1212.2	1499.3	445.76	-1271.9	1484.8	101.1	-1137.4	1814.1	248.29	-1156.9	983.45	407.2	NaN	NaN	NaN	-1377.4	1017.6	316.12	-1374.4	1026.6	234.61	-1246.4	900.46	470.9	-1276.1	920.76	94.814	-1244.9	1078.9	454.03	-1275	1086.6	117.95	-1399.3	981.17	275.13	-1221.7	642.8	472.21	-1135.5	567.31	449.44	-1210.9	552.85	461.38	-1140.5	677.84	464.08	-1193.1	484.52	455.53	-1200.1	480.71	321.13	-1396.1	377.25	446.15	NaN	NaN	NaN	-1452.7	331.64	433.12	-1360.2	323.73	434.57	-1527.8	248.9	414.65	-1494.3	230.7	331.62	-1590.4	267.45	352.24	-1598.9	237.74	322.64	-1616	247.23	384.5	-1518	124.18	458.38	-1469.7	86.446	349.59	-1411.3	67.378	409.98	-1230.1	681.34	107.48	-1126.3	610.06	113.74	-1198.3	598.96	123.17	-1163.1	691.25	96.082	-1133.2	518.17	131.85	-1132.9	508.6	254.53	-1201.3	333.39	128.58	-1130.5	250.05	138.86	-1194.6	254.85	139.53	-1140.3	325.51	129.12	-1145.8	97.194	157.46	-1143.2	110.55	250.71	-1219.6	67.491	205.61	-1213.6	45.176	240.33	-1218.1	38.582	179.55	-1032.6	42.795	142.81	-1002.7	57.438	257.25	-945.25	70.055	208.07	-1284	1551.9	283.74	-1387.7	1295.7	278.19
47	0.19167	-1116.4	1266.4	257.77	-1207.1	1499.9	445.26	-1266.1	1485.1	100.49	-1132	1814.6	247.69	-1151.8	983.86	406.75	NaN	NaN	NaN	-1372.5	1018	315.77	-1369.5	1027	234.28	-1241	900.83	470.48	-1271.2	921.2	94.489	-1239.9	1079.3	453.63	-1269.9	1087.1	117.58	-1394.3	981.58	274.73	-1213.3	643.41	471.65	-1126.3	569.03	449.07	-1201.3	553.59	460.75	-1132.6	679.47	463.77	-1182.9	485.84	454.93	-1189.5	481.89	320.44	-1386.1	379.15	445.19	NaN	NaN	NaN	-1442.8	333.56	432.33	-1350	325.5	434.09	-1517.8	250.98	413.91	-1484.2	232.01	331.12	-1580.2	268.86	350.98	-1588.8	238.84	321.67	-1606.2	249.09	383.39	-1508	126.7	459.08	-1459.5	87.773	350.82	-1401.9	68.32	411.06	-1226.3	681.68	107.34	-1122.9	609.91	113.54	-1194.9	599.16	123.05	-1159.3	691.26	95.854	-1130.2	518.02	131.77	-1129.8	508.58	254.51	-1199.6	333.69	128.8	-1129.1	249.87	138.93	-1193.2	255.11	139.71	-1138.6	325.38	129.17	-1145.6	97.312	157.64	-1142.9	110.52	250.9	-1219.6	67.59	205.7	-1213.6	45.212	240.38	-1218.1	38.737	179.59	-1032.5	42.706	142.74	-1002.6	56.943	257.32	-945.1	69.435	208.13	-1278.5	1552.4	283.05	-1382.5	1296.3	277.46
48	0.19583	-1111.2	1266.9	257.61	-1202	1500.5	444.79	-1260.3	1485.5	99.896	-1126.6	1815.1	247.09	-1146.8	984.32	406.32	-1156.9	1012.4	159.73	-1367.6	1018.4	315.43	-1364.5	1027.5	233.95	-1235.6	901.29	470.08	-1266.4	921.63	94.186	-1235	1079.7	453.23	-1264.8	1087.6	117.21	-1389.4	982.02	274.33	-1204.9	644.14	471.07	-1117.1	570.86	448.66	-1191.9	554.46	460.09	-1124.8	681.2	463.44	-1172.8	487.3	454.32	-1179	483.22	319.72	-1376	380.86	444.25	NaN	NaN	NaN	-1432.7	335.2	431.54	-1339.6	327.13	433.61	-1507.7	252.65	413.19	-1473.8	233.03	330.6	-1569.9	269.76	349.79	-1578.4	239.42	320.75	-1596.1	250.36	382.33	-1497.5	128.83	459.72	-1448.7	88.89	351.93	-1391.9	69.176	412.01	-1222.6	682.03	107.24	-1119.5	609.75	113.38	-1191.5	599.35	122.97	-1155.6	691.26	95.668	-1127.3	517.86	131.73	-1126.9	508.54	254.53	-1197.9	333.95	129.1	-1127.9	249.7	139.02	-1191.9	255.37	139.94	-1136.9	325.26	129.25	-1145.4	97.444	157.84	-1142.7	110.49	251.12	-1219.5	67.691	205.81	-1213.5	45.242	240.45	-1218	38.898	179.64	-1032.4	42.648	142.68	-1002.4	56.467	257.4	-944.97	68.864	208.2	-1273	1552.9	282.37	-1377.2	1296.9	276.74
49	0.2	-1106.1	1267.4	257.47	-1196.9	1501.1	444.33	-1254.5	1485.9	99.322	-1121.1	1815.6	246.49	-1141.8	984.85	405.92	-1152.5	1012.9	159.33	-1362.8	1018.8	315.09	-1359.5	1028	233.61	-1230.2	901.83	469.71	-1261.6	922.06	93.903	-1230.1	1080.2	452.84	-1259.7	1088.1	116.85	-1384.5	982.48	273.93	-1196.7	644.97	470.46	-1108.1	572.79	448.21	-1182.5	555.44	459.4	-1117	683	463.08	-1162.9	488.86	453.68	-1168.7	484.68	319	-1365.9	382.36	443.31	NaN	NaN	NaN	-1422.5	336.53	430.75	-1329.2	328.62	433.13	-1497.2	253.88	412.51	-1463.3	233.75	330.07	-1559.4	270.14	348.68	-1567.8	239.49	319.9	-1585.8	251.05	381.37	-1486.4	130.55	460.28	-1437.4	89.789	352.89	-1381.3	69.935	412.8	-1218.9	682.38	107.19	-1116.2	609.58	113.27	-1188.3	599.55	122.94	-1151.9	691.25	95.52	-1124.6	517.69	131.72	-1124.1	508.49	254.59	-1196.5	334.17	129.49	-1126.7	249.53	139.12	-1190.6	255.62	140.22	-1135.4	325.15	129.35	-1145.3	97.588	158.06	-1142.5	110.46	251.35	-1219.5	67.795	205.93	-1213.5	45.269	240.52	-1217.9	39.063	179.7	-1032.4	42.613	142.63	-1002.3	56.008	257.48	-944.85	68.332	208.27	-1267.5	1553.5	281.71	-1372.1	1297.6	276.03
50	0.20417	-1100.9	1267.9	257.34	-1191.9	1501.8	443.88	-1248.7	1486.3	98.765	-1115.6	1816.1	245.91	-1136.8	985.45	405.53	-1147.9	1013.4	158.92	-1357.9	1019.3	314.75	-1354.6	1028.5	233.27	-1224.9	902.45	469.36	-1256.7	922.49	93.64	-1225.2	1080.8	452.46	-1254.6	1088.6	116.49	-1379.6	982.98	273.56	-1188.6	645.89	469.84	-1099.2	574.8	447.72	-1173.3	556.53	458.68	-1109.3	684.87	462.7	-1153	490.53	453.03	-1158.4	486.26	318.26	-1355.7	383.64	442.41	NaN	NaN	NaN	-1412.1	337.56	429.99	-1318.6	329.95	432.64	-1486.5	254.68	411.86	-1452.5	234.18	329.54	-1548.8	270.03	347.68	-1557	239.07	319.13	-1575.3	251.16	380.5	-1474.7	131.84	460.76	-1425.6	90.464	353.7	-1370.2	70.589	413.43	-1215.3	682.75	107.16	-1113	609.39	113.19	-1185.1	599.75	122.93	-1148.2	691.23	95.408	-1121.9	517.52	131.73	-1121.5	508.43	254.69	-1195.1	334.35	129.95	-1125.5	249.37	139.25	-1189.4	255.88	140.53	-1133.9	325.04	129.48	-1145.1	97.739	158.29	-1142.2	110.44	251.59	-1219.5	67.903	206.05	-1213.4	45.296	240.59	-1217.8	39.233	179.76	-1032.3	42.596	142.6	-1002.2	55.565	257.56	-944.75	67.835	208.35	-1262.1	1554.1	281.06	-1366.9	1298.3	275.32
51	0.20833	-1095.8	1268.4	257.23	-1186.9	1502.5	443.45	-1242.9	1486.8	98.225	-1110.1	1816.7	245.33	-1131.9	986.11	405.17	-1143.1	1014	158.5	-1353	1019.8	314.42	-1349.6	1029	232.94	-1219.6	903.16	469.02	-1251.9	922.91	93.396	-1220.3	1081.4	452.08	-1249.5	1089.1	116.15	-1374.7	983.52	273.19	-1180.5	646.9	469.21	-1090.3	576.89	447.18	-1164.2	557.71	457.95	-1101.7	686.8	462.29	-1143.3	492.29	452.35	-1148.3	487.95	317.52	-1345.5	384.69	441.53	NaN	NaN	NaN	-1401.5	338.27	429.24	-1308	331.11	432.14	-1475.5	255.04	411.26	-1441.4	234.31	329.02	-1538	269.44	346.78	-1546	238.17	318.44	-1564.5	250.7	379.73	-1462.6	132.68	461.14	-1413.3	90.913	354.33	-1358.5	71.13	413.89	-1211.7	683.13	107.16	-1109.9	609.2	113.15	-1182	599.95	122.94	-1144.7	691.2	95.328	-1119.4	517.34	131.77	-1118.9	508.37	254.8	-1193.9	334.5	130.46	-1124.5	249.22	139.38	-1188.3	256.12	140.86	-1132.5	324.93	129.62	-1145	97.896	158.53	-1142	110.43	251.85	-1219.5	68.017	206.18	-1213.4	45.324	240.68	-1217.7	39.407	179.82	-1032.2	42.592	142.57	-1002.1	55.135	257.65	-944.65	67.367	208.43	-1256.7	1554.7	280.43	-1361.7	1299	274.62
52	0.2125	-1090.6	1269	257.14	-1181.9	1503.2	443.03	-1237.1	1487.3	97.7	-1104.4	1817.3	244.75	-1126.9	986.83	404.82	-1138.3	1014.5	158.08	-1348.2	1020.4	314.1	-1344.7	1029.6	232.61	-1214.3	903.93	468.72	-1247.1	923.34	93.17	-1215.5	1082.1	451.72	-1244.4	1089.7	115.8	-1369.7	984.09	272.85	-1172.5	647.99	468.59	-1081.6	579.04	446.61	-1155.2	558.97	457.22	-1094.2	688.78	461.87	-1133.7	494.11	451.66	-1138.3	489.74	316.76	-1335.2	385.5	440.7	-1344	280.27	412.02	-1390.7	338.66	428.52	-1297.2	332.11	431.64	-1464.3	254.96	410.71	-1430.2	234.15	328.5	-1527	268.37	346	-1534.9	236.8	317.84	-1553.5	249.69	379.08	-1449.9	133.09	461.43	-1400.6	91.135	354.79	-1346.3	71.552	414.17	-1208.2	683.52	107.18	-1106.8	609	113.13	-1179	600.16	122.98	-1141.1	691.18	95.276	-1116.9	517.17	131.82	-1116.4	508.3	254.94	-1192.8	334.63	131.01	-1123.5	249.07	139.52	-1187.2	256.36	141.2	-1131.2	324.82	129.78	-1144.9	98.057	158.79	-1141.8	110.42	252.1	-1219.5	68.137	206.32	-1213.4	45.356	240.76	-1217.7	39.584	179.88	-1032.2	42.597	142.56	-1002	54.719	257.73	-944.56	66.923	208.52	-1251.3	1555.4	279.81	-1356.5	1299.7	273.91
53	0.21667	-1085.5	1269.6	257.06	-1177	1504	442.61	-1231.3	1487.9	97.189	-1098.8	1817.8	244.19	-1122	987.61	404.49	-1133.3	1015.1	157.66	-1343.3	1021.1	313.79	-1339.7	1030.2	232.29	-1209	904.78	468.43	-1242.3	923.78	92.96	-1210.7	1082.8	451.36	-1239.3	1090.3	115.47	-1364.8	984.7	272.52	-1164.6	649.14	467.96	-1072.9	581.24	445.99	-1146.3	560.31	456.48	-1086.7	690.8	461.43	-1124.2	495.98	450.94	-1128.5	491.62	316	-1324.9	386.07	439.91	-1333.9	280.02	411.58	-1379.8	338.73	427.84	-1286.4	332.93	431.14	-1452.8	254.46	410.2	-1418.7	233.71	327.99	-1515.8	266.84	345.34	-1523.5	235	317.33	-1542.2	248.13	378.54	-1436.7	133.06	461.63	-1387.4	91.133	355.07	-1333.6	71.851	414.29	-1204.8	683.92	107.22	-1103.9	608.8	113.14	-1176	600.38	123.02	-1137.7	691.16	95.248	-1114.5	516.99	131.89	-1114	508.22	255.08	-1191.8	334.73	131.57	-1122.5	248.94	139.67	-1186.2	256.59	141.54	-1130	324.73	129.93	-1144.7	98.218	159.04	-1141.6	110.41	252.36	-1219.5	68.265	206.46	-1213.3	45.392	240.85	-1217.6	39.763	179.95	-1032.2	42.608	142.54	-1001.9	54.316	257.82	-944.48	66.5	208.6	-1245.9	1556.1	279.21	-1351.3	1300.5	273.22
54	0.22083	-1080.3	1270.2	257	-1172	1504.8	442.21	-1225.5	1488.4	96.693	-1093	1818.4	243.63	-1117.1	988.44	404.18	-1128.2	1015.6	157.24	-1338.4	1021.7	313.49	-1334.7	1030.8	231.98	-1203.8	905.7	468.16	-1237.6	924.22	92.766	-1205.8	1083.6	451.02	-1234.2	1090.9	115.14	-1359.8	985.34	272.22	-1156.8	650.36	467.36	-1064.4	583.49	445.34	-1137.5	561.72	455.75	-1079.3	692.86	460.97	-1114.8	497.89	450.2	-1118.9	493.57	315.23	-1314.5	386.39	439.17	-1323.3	279.7	411.1	-1368.8	338.48	427.18	-1275.4	333.58	430.63	-1441.1	253.54	409.74	-1407	232.99	327.49	-1504.4	264.88	344.78	-1512	232.78	316.89	-1530.7	246.06	378.11	-1423.1	132.62	461.72	-1373.8	90.91	355.18	-1320.3	72.027	414.22	-1201.4	684.34	107.26	-1100.9	608.59	113.16	-1173.1	600.62	123.06	-1134.2	691.14	95.24	-1112.3	516.81	131.97	-1111.7	508.13	255.23	-1190.9	334.83	132.13	-1121.6	248.82	139.82	-1185.2	256.82	141.88	-1128.8	324.63	130.09	-1144.6	98.379	159.3	-1141.4	110.42	252.61	-1219.5	68.401	206.6	-1213.3	45.434	240.94	-1217.5	39.943	180.01	-1032.1	42.622	142.54	-1001.8	53.928	257.9	-944.4	66.096	208.68	-1240.5	1556.8	278.62	-1346.2	1301.3	272.52
